<?xml version="1.0" encoding="utf-8"?>
<!-- Generator: Adobe Illustrator 16.0.0, SVG Export Plug-In . SVG Version: 6.00 Build 0)  -->
<!DOCTYPE svg PUBLIC "-//W3C//DTD SVG 1.1//EN" "http://www.w3.org/Graphics/SVG/1.1/DTD/svg11.dtd">
<svg version="1.1" id="Capa_1" xmlns="http://www.w3.org/2000/svg" xmlns:xlink="http://www.w3.org/1999/xlink" x="0px" y="0px"
	 width="512px" height="181px" viewBox="0 165.5 512 181" enable-background="new 0 165.5 512 181" xml:space="preserve">
<g>
	<path fill="#FFFFFF" d="M495.334,204.226c-11.325-12.665-27.229-19.678-44.734-19.733c-0.1,0-0.183,0-0.269,0
		c-35.324,0-55.593,21.466-73.325,45.347c-4.198,5.191-12.324,12.163-22.791,6.248c-6.156-3.465-8.337-11.311-4.902-17.466
		c2.563-4.578,8.395-6.232,12.986-3.634c1.592,0.893,2.748,2.38,3.297,4.155c0.492,1.781,0.281,3.648-0.648,5.246
		c-0.619,1.099-1.633,1.802-2.734,2.146c-0.462-2.463-2.759-4.182-5.252-3.807c-2.578,0.379-4.34,2.773-3.944,5.35
		c0.027,0.261,0.296,0.386,0.352,0.62c-0.296,1.485,0.127,3.028,1.506,3.81c5.79,3.231,13.127,1.185,16.396-4.584
		c1.859-3.29,2.309-7.113,1.295-10.747c-0.971-3.634-3.335-6.648-6.676-8.494c-8.084-4.529-18.311-1.677-22.816,6.389
		c-5.41,9.621-2.001,21.866,7.633,27.291c3.791,2.119,7.662,3.169,11.522,3.169c1.268,0,2.507-0.289,3.745-0.502
		c-3.618,5.071-7.225,10.15-10.972,14.869c-8.298,10.479-15.438,19.227-22.382,25.931c-0.83,0.069-1.605,0.267-2.226,0.858
		c-14.466,13.522-29.522,15.354-42.34,5.156c-9.975-7.972-11.677-22.565-3.733-32.565c6.127-7.668,17.367-8.97,25.059-2.843
		c2.803,2.256,4.605,5.464,4.998,9.07c0.41,3.578-0.605,7.113-2.856,9.946c-1.509,1.957-3.761,3.128-6.199,3.576
		c0.31-0.845,0.534-1.747,0.534-2.704c0-4.224-3.41-7.689-7.689-7.689c-4.239,0-7.66,3.466-7.66,7.689
		c0,1.381,0.435,2.591,1.098,3.717c0.028,1.014,0.38,2.002,1.268,2.677c3.607,2.873,8.1,4.196,12.734,3.634
		c4.578-0.522,8.705-2.789,11.592-6.396c3.424-4.354,5.015-9.762,4.395-15.27c-0.619-5.507-3.326-10.458-7.636-13.888
		c-10.788-8.586-26.606-6.824-35.183,3.993c-10.303,12.965-8.235,31.841,4.506,42.361c-5.646-2.721-10.571-6.679-14.367-11.973
		c-6.232-8.691-8.711-19.679-6.824-30.171c1.472-8.078,5.957-15.098,12.711-19.789c6.734-4.677,14.859-6.479,22.988-5.022
		c1.916,0.29,3.83-0.951,4.171-2.907c0.323-1.966-0.944-3.838-2.903-4.196c-9.928-1.802-20.027,0.4-28.366,6.183
		c-4.643,3.246-8.339,7.485-11.122,12.276v-13.155c14.727-1.628,26.221-14.001,26.221-29.15c0-7.874-3.072-15.276-8.621-20.839
		c-5.57-5.57-12.961-8.626-20.847-8.626c-16.255,0-29.468,13.227-29.468,29.467c0,14.888,11.122,27.085,25.5,29.079v13.099
		c-7.83-13.389-23.337-21.26-39.361-18.318c-1.98,0.345-3.289,2.218-2.931,4.196c0.345,1.945,2.225,3.197,4.196,2.91
		c16.613-3,32.671,8.119,35.685,24.797c1.887,10.522-0.592,21.508-6.81,30.198c-3.803,5.298-8.753,9.256-14.395,11.974
		c12.782-10.521,14.846-29.409,4.499-42.375c-8.607-10.803-24.36-12.593-35.165-3.993c-4.337,3.444-7.048,8.394-7.684,13.888
		c-0.62,5.494,0.923,10.902,4.395,15.256c5.929,7.467,16.868,8.718,24.346,2.773c0.879-0.676,1.21-1.647,1.289-2.69
		c0.62-1.126,1.05-2.339,1.05-3.692c0-4.251-3.417-7.688-7.67-7.688c-4.226,0-7.661,3.438-7.661,7.688
		c0,0.93,0.248,1.832,0.534,2.693c-2.353-0.412-4.599-1.566-6.246-3.578c-2.218-2.834-3.275-6.353-2.824-9.961
		c0.444-3.576,2.177-6.801,5.036-9.042c7.682-6.139,18.917-4.823,25.021,2.833c7.943,9.984,6.303,24.605-3.74,32.578
		c-12.82,10.184-27.832,8.381-42.313-5.184c-0.627-0.562-1.429-0.761-2.197-0.816c-6.923-6.747-14.108-15.493-22.396-25.961
		c-3.766-4.711-7.375-9.795-10.992-14.866c1.24,0.225,2.479,0.5,3.754,0.5c3.831,0,7.71-1.037,11.494-3.169
		c9.635-5.408,13.063-17.657,7.654-27.305c-4.529-8.036-14.783-10.902-22.817-6.375c-3.303,1.846-5.663,4.86-6.676,8.494
		c-1.008,3.634-0.564,7.46,1.302,10.733c1.557,2.794,4.12,4.818,7.24,5.684c3.072,0.872,6.317,0.472,9.128-1.099
		c1.401-0.782,1.776-2.311,1.499-3.782c0.071-0.261,0.316-0.372,0.375-0.647c0.331-2.577-1.43-4.959-3.979-5.351
		c-2.494-0.375-4.774,1.358-5.219,3.824c-1.157-0.375-2.142-1.099-2.762-2.146c-0.895-1.612-1.106-3.479-0.62-5.26
		c0.479-1.776,1.635-3.262,3.275-4.154c4.557-2.556,10.458-0.944,12.979,3.62c3.465,6.169,1.288,14.016-4.902,17.48
		c-10.396,5.838-18.431-0.937-22.644-6.1c-17.74-23.946-38.093-45.481-73.475-45.481c-0.083,0-0.169,0-0.275,0
		c-17.508,0.055-33.388,7.071-44.72,19.733C4.138,218.229-1.763,237.894,0.446,258.213c1.64,15.267,9.169,28.958,21.156,38.593
		c10.312,8.311,22.861,12.676,35.868,12.676c0.451,0,0.895-0.056,1.399-0.056c0.072,0,0.134,0.084,0.22,0.084
		c0.169,0,0.303,0,0.458-0.028c0.217-0.027,0.352-0.086,0.55-0.113c1.24-0.056,2.494-0.056,3.754-0.213
		c25.6-2.773,44.163-25.887,41.39-51.509c-2.263-20.881-20.995-36.037-42.01-33.764c-1.978,0.22-3.409,1.992-3.189,3.965
		c0.231,1.978,1.774,3.438,3.964,3.206c16.847-1.888,32.179,10.43,34.022,27.353c1.416,12.846-3.634,24.818-12.331,33.014
		c3.576-7.506,4.705-16.592,2.711-25.916c-1.654-7.945-6.331-14.747-13.12-19.176c-6.824-4.416-14.932-5.929-22.875-4.24
		c-6.563,1.395-12.19,5.249-15.824,10.875c-3.634,5.614-4.874,12.287-3.479,18.767c1.126,5.41,4.316,10.058,8.929,13.072
		c4.649,3.039,10.168,4.109,15.648,2.928c4.543-0.985,8.436-3.632,10.98-7.534c2.001-3.085,2.619-6.692,2.422-10.296
		c0-0.113,0.086-0.227,0.086-0.367c0-0.197-0.086-0.309-0.114-0.507c-0.063-0.62,0.114-1.21-0.027-1.83
		c-0.063-0.254-0.303-0.337-0.423-0.592c-1.092-2.79-3.824-4.788-6.979-4.847c-4.254-0.055-7.733,3.324-7.791,7.576
		c-0.056,3.762,2.699,6.803,6.275,7.522c-1.487,1.915-3.465,3.296-5.859,3.831c-3.542,0.788-7.175,0.082-10.199-1.886
		c-3.014-1.987-5.105-5.001-5.811-8.511c-0.964-4.646-0.127-9.382,2.466-13.379c2.6-3.995,6.593-6.748,11.268-7.749
		c6.058-1.295,12.246-0.141,17.439,3.231c5.177,3.375,8.725,8.572,10.023,14.612c1.978,9.368,0.451,18.466-4.143,24.976
		c-3.831,5.38-9.831,8.773-17.219,10.043c-12.304,0.62-24.212-3.044-33.911-10.818c-10.501-8.424-17.078-20.383-18.5-33.749
		c-1.978-18.274,3.275-35.898,14.395-48.361c9.937-11.122,23.939-17.284,39.361-17.323c0.085,0,0.168,0,0.252,0
		c31.559,0,50.482,19.634,67.01,41.769c0.035,0.035,0,0.079,0.035,0.12c0.114,0.127,0.255,0.225,0.303,0.358
		c2.986,3.993,5.91,8.036,8.783,12.084c0.761,1.071,1.529,2.05,2.274,3.107c-5.711-1.099-11.508,0.099-16.889,3.675
		c-9.199,6.134-11.711,18.556-5.628,27.742c3.218,4.816,8.542,7.438,13.965,7.438c3.189,0,6.403-0.902,9.262-2.788
		c3.155-2.101,5.288-5.267,6.056-8.986c0.731-3.692,0-7.467-2.104-10.595c-3.676-5.463-11.164-6.957-16.641-3.324
		c-1.113,0.762-1.458,1.999-1.374,3.239c-0.113,0.337-0.451,0.562-0.479,0.93c-0.227,2.591,1.677,4.847,4.289,5.099
		c2.422,0.213,4.451-1.537,4.902-3.916c1.295,0.198,2.535,0.818,3.303,2c0.992,1.494,1.388,3.326,0.992,5.129
		c-0.345,1.802-1.43,3.379-2.956,4.393c-4.337,2.931-10.312,1.746-13.213-2.635c-3.907-5.846-2.26-13.818,3.606-17.732
		c10.486-6.917,19.403,0.224,23.754,5.111c0.021,0,0.049,0,0.049,0.014c0.113,0.145,0.227,0.313,0.303,0.426
		c20.409,25.718,37.862,47.918,68.061,43.323c11.945-1.832,22.502-8.336,29.657-18.339c1.295-1.832,2.274-3.86,3.303-5.831v29.548
		c-0.548,0.424-1.14,0.775-1.557,1.396l-8.959,13.269c-0.782,1.109-0.867,2.549-0.233,3.73c0.62,1.171,1.846,1.915,3.19,1.915h3.042
		c0,0.169-0.134,0.326-0.134,0.535c0,4.536,3.71,8.239,8.253,8.239s8.232-3.706,8.232-8.239c0-0.211-0.113-0.366-0.113-0.535h3.811
		c0.1,0,0.154,0,0.196,0c2.008,0,3.608-1.633,3.608-3.605c0-1.127-0.523-2.128-1.325-2.788l-8.478-12.509
		c-0.655-0.928-1.475-1.604-2.325-2.112v-29.059c1.021,2.07,2.104,4.141,3.444,6.057c7.154,9.985,17.688,16.522,29.637,18.325
		c30.016,4.619,47.635-17.606,68.043-43.323c0.145-0.145,0.255-0.299,0.313-0.426c0,0,0.027,0,0.027-0.014
		c4.41-4.889,13.326-12.057,23.775-5.112c5.873,3.913,7.508,11.888,3.606,17.732c-2.901,4.382-8.817,5.538-13.228,2.635
		c-1.533-1.013-2.59-2.563-2.941-4.393c-0.365-1.802,0-3.634,1.002-5.128c0.719-1.071,1.787-1.803,3.041-2.057
		c0.127-0.03,0.183,0.053,0.297,0.053c0.423,2.342,2.477,4.088,4.9,3.916c2.605-0.227,4.507-2.507,4.294-5.098
		c-0.028-0.368-0.366-0.623-0.493-0.958c0.1-1.239-0.252-2.452-1.367-3.213c-2.689-1.788-5.873-2.408-9.012-1.788
		c-3.169,0.634-5.846,2.463-7.622,5.112c-2.098,3.13-2.801,6.891-2.098,10.563c0.761,3.692,2.873,6.9,6.028,8.987
		c2.845,1.888,6.086,2.79,9.297,2.79c5.424,0,10.746-2.621,13.959-7.438c6.114-9.199,3.593-21.637-5.637-27.755
		c-5.395-3.579-11.154-4.774-16.858-3.685c0.761-1.062,1.506-2.026,2.253-3.097c2.903-4.078,5.859-8.133,8.846-12.156
		c0.086-0.104,0.169-0.176,0.282-0.275c0.014-0.027,0-0.055,0.027-0.092c16.537-22.148,35.454-41.799,67.02-41.799
		c0.083,0,0.169,0,0.227,0c15.466,0.044,29.438,6.206,39.368,17.339c11.14,12.466,16.409,30.085,14.396,48.361
		c-1.45,13.34-8.028,25.339-18.466,33.763c-9.689,7.772-21.635,11.437-33.93,10.819c-7.438-1.271-13.409-4.663-17.226-10.071
		c-4.592-6.48-6.114-15.578-4.113-24.959c1.268-6.043,4.847-11.24,10.014-14.613c5.17-3.373,11.367-4.529,17.439-3.231
		c4.647,0.985,8.66,3.724,11.226,7.719c2.607,3.987,3.479,8.746,2.479,13.395c-0.733,3.51-2.789,6.549-5.804,8.508
		c-3.042,1.974-6.678,2.663-10.198,1.886c-2.395-0.507-4.423-1.915-5.859-3.845c3.578-0.705,6.313-3.717,6.282-7.506
		c-0.056-4.254-3.534-7.636-7.788-7.578c-3.228,0.044-5.887,2.029-6.986,4.818c-0.129,0.252-0.367,0.338-0.425,0.62
		c-0.142,0.593,0.044,1.185-0.028,1.802c-0.027,0.197-0.113,0.311-0.113,0.509c0,0.142,0.086,0.253,0.086,0.366
		c-0.199,3.605,0.448,7.209,2.449,10.309c2.538,3.889,6.424,6.535,10.96,7.523c5.436,1.141,10.999,0.113,15.618-2.932
		c4.636-3.016,7.818-7.66,8.945-13.043c1.406-6.535,0.152-13.241-3.493-18.841c-3.634-5.598-9.241-9.452-15.803-10.833
		c-7.946-1.688-16.059-0.176-22.848,4.24c-6.816,4.423-11.467,11.221-13.144,19.176c-1.984,9.324-0.886,18.467,2.748,25.975
		c-1.395-1.268-2.731-2.535-3.928-4.027c-6.606-8.225-9.62-18.537-8.494-29.044c1.874-16.923,17.185-29.275,34.06-27.353
		c2.111,0.234,3.775-1.212,3.943-3.206c0.253-1.973-1.212-3.745-3.198-3.965c-20.972-2.366-39.75,12.866-41.986,33.75
		c-1.367,12.408,2.182,24.607,9.985,34.324c7.83,9.718,18.942,15.834,31.381,17.171c1.237,0.144,2.521,0.144,3.761,0.197
		c0.211,0.044,0.324,0.099,0.549,0.127c0.152,0.03,0.31,0.03,0.448,0.03c0.086,0,0.155-0.056,0.227-0.084
		c0.451,0.028,0.902,0.084,1.396,0.084c13.029,0,25.581-4.409,35.891-12.677c11.987-9.634,19.521-23.354,21.156-38.606
		C513.73,237.873,507.827,218.209,495.334,204.226z M259.512,219.641v-40.917c3.069,3.113,6,10.324,6,20.492
		C265.512,209.21,262.569,216.451,259.512,219.641z M252.301,179.877v38.713c-2.752-3.509-5.239-10.085-5.239-19.361
		C247.062,189.954,249.546,183.377,252.301,179.877z M278.549,199.229c0,7.318-3.606,13.761-9.072,17.825
		c2.035-4.888,3.245-10.972,3.245-17.825c0-6.852-1.224-12.938-3.245-17.839C274.942,185.44,278.549,191.906,278.549,199.229z
		 M234.025,199.229c0-7.31,3.606-13.738,9.042-17.795c-2.022,4.888-3.232,10.971-3.232,17.795c0,6.84,1.212,12.923,3.262,17.811
		C237.629,212.993,234.025,206.548,234.025,199.229z"/>
</g>
</svg>
